Coordinates
version=1
nRows=5
nColumns=40
inDegrees=yes

Units are S.I. units (second, meters, Newtons, ...)
Angles are in degrees.

endheader
time	pelvis_tilt	pelvis_list	pelvis_rotation	pelvis_tx	pelvis_ty	pelvis_tz	hip_flexion_r	hip_adduction_r	hip_rotation_r	knee_angle_r	knee_angle_r_beta	ankle_angle_r	subtalar_angle_r	mtp_angle_r	hip_flexion_l	hip_adduction_l	hip_rotation_l	knee_angle_l	knee_angle_l_beta	ankle_angle_l	subtalar_angle_l	mtp_angle_l	lumbar_extension	lumbar_bending	lumbar_rotation	arm_flex_r	arm_add_r	arm_rot_r	elbow_flex_r	pro_sup_r	wrist_flex_r	wrist_dev_r	arm_flex_l	arm_add_l	arm_rot_l	elbow_flex_l	pro_sup_l	wrist_flex_l	wrist_dev_l
     37.51000000	     -3.40483450	     -4.52709114	     -2.30646789	      0.96188541	      0.92459675	      0.47012464	     19.79990896	      2.40889937	    -12.69977431	     21.80300475	     21.80300475	      7.69919029	     -4.76767255	     -1.66024442	      4.46814929	     -9.80960291	     -9.83966313	     37.64415231	     37.64415231	     12.82593663	    -14.61383714	     -8.60507142	     -7.79887178	      7.05481986	      1.20890243	    -10.48161592	    -10.99761120	     -8.81754725	     22.47097108	     46.44722924	      0.00000000	      0.00000000	     21.19746669	    -13.20219599	    -10.07678874	     65.20427931	     47.23321559	      0.00000000	      0.00000000
     37.52200000	     -3.50090195	     -4.61608896	     -1.88618577	      0.96200782	      0.92542495	      0.47179347	     19.05097528	      2.58243631	    -13.10171942	     21.20330299	     21.20330299	      7.92061270	     -4.59513023	     -1.78679964	      6.53429991	    -10.37406842	     -8.65898422	     41.55573336	     41.55573336	     10.76090992	    -16.06115777	     -8.62268645	     -7.69593019	      7.12618309	      1.12874527	     -9.03370377	    -11.02919802	     -8.61564606	     23.07264900	     46.42163808	      0.00000000	      0.00000000	     20.48688601	    -12.77172405	     -9.64753357	     63.57810574	     47.17423325	      0.00000000	      0.00000000
     37.53400000	     -3.58855037	     -4.74648334	     -1.42565293	      0.96187604	      0.92609909	      0.47336393	     18.30162722	      2.79035909	    -13.56857204	     20.59544354	     20.59544354	      8.12122812	     -4.33500026	     -1.98437455	      8.73719294	    -10.94306012	     -7.44924507	     45.50911316	     45.50911316	      8.82341010	    -17.07894981	     -8.12121163	     -7.65635030	      7.25471735	      1.14366088	     -7.56613624	    -11.10922305	     -8.36805483	     23.71588431	     46.39034942	      0.00000000	      0.00000000	     19.92563659	    -12.28962939	     -9.11772171	     61.78508175	     47.10607636	      0.00000000	      0.00000000
     37.54600000	     -3.58021086	     -4.79945390	     -1.03380560	      0.96151579	      0.92675208	      0.47481907	     17.51374116	      2.90311924	    -14.02901354	     20.05561012	     20.05561012	      8.12810605	     -4.03405957	     -2.82694700	     10.98546148	    -11.27654313	     -6.14804087	     49.58826315	     49.58826315	      8.23564174	    -17.28613657	     -4.31060618	     -7.71444637	      7.23731474	      1.91687963	     -6.49528111	    -11.34107169	     -7.25256738	     24.73275188	     46.27998512	      0.00000000	      0.00000000	     20.56319473	    -11.44522301	     -7.62438756	     57.87526611	     46.95209453	      0.00000000	      0.00000000
     37.55800000	     -3.68277801	     -5.00828323	     -0.59832163	      0.96098279	      0.92708804	      0.47622695	     16.84939551	      3.20020975	    -14.48925616	     19.51065709	     19.51065709	      8.34631260	     -3.77767165	     -2.88857795	     13.30367751	    -11.78512746	     -4.94759837	     53.18103196	     53.18103196	      6.56544388	    -17.72146920	     -3.65323094	     -7.72515009	      7.40037720	      1.91925860	     -4.86634067	    -11.54119062	     -7.18193422	     25.56015530	     46.25582382	      0.00000000	      0.00000000	     19.68310234	    -11.00170739	     -7.21855133	     56.85916001	     46.89943436	      0.00000000	      0.00000000
